<svg id="Capa_1" data-name="Capa 1" xmlns="http://www.w3.org/2000/svg" viewBox="0 0 1528.91 1080.41"><defs><style>.cls-1,.cls-11,.cls-2{fill:#d9d9d9}.cls-1{clip-rule:evenodd}.cls-9{fill:#282828}.cls-11{fill-rule:evenodd}.cls-13{clip-path:url(#clip-path-2)}</style><linearGradient id="linear-gradient" x1="1981.96" y1="2444.5" x2="2163.3" y2="2444.5" gradientTransform="matrix(-.3 .96 -.96 -.3 3429.78 -736.67)" gradientUnits="userSpaceOnUse"><stop offset=".04" stop-color="#e8e8e8"/><stop offset="1" stop-color="#b3b3b3"/></linearGradient><linearGradient id="linear-gradient-2" x1="244.6" y1="113.13" x2="324.34" y2="222.12" gradientUnits="userSpaceOnUse"><stop offset=".04" stop-color="#fafafa"/><stop offset="1" stop-color="#cfcfcf"/></linearGradient><linearGradient id="linear-gradient-3" x1="111.46" y1="126.74" x2="224.12" y2="280.74" gradientUnits="userSpaceOnUse"><stop offset="0" stop-color="#f0f0f0"/><stop offset="1" stop-color="#adadad"/></linearGradient><linearGradient id="linear-gradient-4" x1="186.47" y1="233.73" x2="186.47" y2="36.5" gradientUnits="userSpaceOnUse"><stop offset="0"/><stop offset="1" stop-color="#0d0d0d"/></linearGradient><linearGradient id="Degradado_sin_nombre_2" x1="186.06" y1="248.8" x2="186.06" y2="-16.97" gradientUnits="userSpaceOnUse"><stop offset=".04" stop-color="#b6b6b6"/><stop offset="1" stop-color="#8f8f8f"/></linearGradient><linearGradient id="linear-gradient-5" x1="24.84" y1="168.86" x2="347.27" y2="168.86" gradientUnits="userSpaceOnUse"><stop offset=".04" stop-color="#ebebeb"/><stop offset="1" stop-color="#bdbdbd"/></linearGradient><clipPath id="clip-path" transform="translate(275.09 407.43)"><path class="cls-1" d="M672.65 168.46v-.21c0-21.19 16.23-39.13 39.08-39.13 13.2 0 21.31 3.68 29.1 10.26l-8.44 10.06c-5.84-5-11.58-8.11-21.21-8.11-14 0-24.58 12.21-24.58 26.69v.23c0 15.55 10.29 27 25.77 27a30.93 30.93 0 0 0 18.28-5.73V172.4l12.88-8.59v31.78a48.32 48.32 0 0 1-31.59 11.77c-23.7 0-39.29-16.86-39.29-38.9"/></clipPath><clipPath id="clip-path-2" transform="translate(275.09 407.43)"><path class="cls-2" d="M-275.09-407.43h1528.91V672.98H-275.09z"/></clipPath><clipPath id="clip-path-3" transform="translate(275.09 407.43)"><path class="cls-1" d="M424.65 131.71l-33.34 76.2h13.63l7.8-18.27 4.88-11.78 12.97-30.25 13.1 30.25 4.88 11.78 7.67 18.27h14.07l-33.32-76.2h-12.34z"/></clipPath><clipPath id="clip-path-5" transform="translate(275.09 407.43)"><path class="cls-1" d="M611.21 130.14l-33.34 76.2h13.64l7.79-18.27 4.88-11.78 12.98-30.25 13.09 30.25 4.88 11.78 7.68 18.27h14.07l-33.33-76.2h-12.34z"/></clipPath><clipPath id="clip-path-7" transform="translate(275.09 407.43)"><path class="cls-1" d="M808 129.39c-23.28 0-39.72 17.83-39.72 39.13v.21c0 21.29 16.23 38.9 39.49 38.9s39.72-17.83 39.72-39.11v-.23c.02-21.29-16.21-38.9-39.49-38.9zm25.54 39.34c0 14.69-10.5 26.69-25.54 26.69s-25.76-12.21-25.76-26.9v-.23c0-14.69 10.5-26.69 25.53-26.69s25.77 12.21 25.77 26.92z"/></clipPath><clipPath id="clip-path-9" transform="translate(275.09 407.43)"><path class="cls-1" d="M927.35 130.68v52.31l-40.58-52.31h-12.34v75.66h13.09v-53.82l41.78 53.82h11.14v-75.66h-13.09z"/></clipPath><clipPath id="clip-path-11" transform="translate(275.09 407.43)"><path class="cls-1" d="M539.16 177.69c10.6-3 18.06-10.48 18.06-22.91v-.21a22.81 22.81 0 0 0-6.28-16.32c-4.86-4.77-12.33-7.57-21.85-7.57h-33.77v75.66h13.32v-63.56H528a26.57 26.57 0 0 1 4.63.44c7 1.23 11.06 5.38 11.06 12.1v.22c0 7.67-6.06 12.65-15.58 12.65h-7.4L515.55 180h9.76l18.61 26.38h15.69z"/></clipPath></defs><circle cx="472.06" cy="546.54" r="90.67" fill="url(#linear-gradient)"/><path d="M260.65 111.86a50 50 0 0 1 9.86 30c0 13.08-5.43 25.18-14.64 35l5.57 20.9h17l17.89-20.34 4.78-29.66 1-17.67-17.67-20z" transform="translate(275.09 407.43)" fill="url(#linear-gradient-2)"/><path d="M63.68 200.19l3.1 12.25s36.61 75.11 119 103c0 0 77.21-32 110.51-86.27l-48.22-40.1s-22 17.46-54.67 17.46-77.06-19.46-77.06-59.7 46-54.87 46-54.87l-19.61-4.83H92.56l-31.78 76.65z" transform="translate(275.09 407.43)" fill="url(#linear-gradient-3)"/><path d="M340.56 119.5c-1.41-1.39-42-44.37-153.26-82.69l-.74-.31c-107.84 37-154.17 83-154.17 83 4.24 24.46 14.84 51.78 24.39 73 .79 1.75 13.63 24.36 23.07 36.71-5.58-12.28-11.7-22.95-11.7-41.4 0-51.88 40.24-94.13 90.53-95.9 1.23 0 2.46 0 3.71.07l-12-12s48.26-8.14 110.26 29.36c0 0 .87 1.94 0 7.5 0 0 29.24 12.64 31.74 37.14s-13 38.5-25.5 40.5c0 0 6.46-10.06-3.5-15.5a14.27 14.27 0 0 0-7.12-1.64c-19.12 0-21.25 21.76-21.25 21.76a24.22 24.22 0 0 0-.24 3.31s-3.17 31.91 53.58 31.3c0 0 28.75-32.61 36.42-61.94 2.82-10.8 4.77-18.92 6.12-24.87 3.2-8.48 6.32-17.34 9.33-26.43z" transform="translate(275.09 407.43)" fill="url(#linear-gradient-4)"/><path class="cls-9" d="M236 119.14a20.39 20.39 0 0 0 6.36-4.83 75.84 75.84 0 0 1 11.97 2.69c-10.92-6.65-25.84-10.52-42.33-10.44 0 0 6.3 9 23.75 12.7a.77.77 0 0 0 .25-.12z" transform="translate(275.09 407.43)"/><path class="cls-9" d="M186.06 41.3c10.56 3.34 87.63 28.86 149.16 79.84l6.9-2-.46-.39c-60.21-51-136.34-77.46-152.1-82.59l-1.5-.48-2-.62-3.5 1.1c-15.77 5.13-91.9 31.63-152.11 82.59l-.65.55 6.68 2.23C98.07 70.28 175.47 44.65 186.06 41.3z" transform="translate(275.09 407.43)"/><path d="M341.66 109.21c-60.21-51-136.34-77.46-152.1-82.59l-1.5-.48-2-.62-3.5 1.1c-15.77 5.13-91.9 31.63-152.11 82.59l-1.3 1.1.28 1.68c.06.38 6.59 39.11 28.82 82.76 13.08 25.67 29 48 47.21 66.48a206.63 206.63 0 0 0 77.19 49.7l1.67.6 1.74.61 1.76-.66 1.65-.55a206.51 206.51 0 0 0 77.18-49.7c18.25-18.44 34.13-40.81 47.21-66.48 22.24-43.65 28.76-82.38 28.82-82.76l.28-1.68zM308.52 192c-12.8 25.12-28.32 47-46.13 65a200.6 200.6 0 0 1-76.33 48.77 200.53 200.53 0 0 1-76.26-48.7c-17.8-18-33.32-39.8-46.12-64.89-19.27-37.77-26.53-71.74-28-79.52C97.38 61 175.42 35.16 186.06 31.8c10.63 3.36 88.67 29.2 150.4 80.87-1.46 7.76-8.71 41.61-27.94 79.33z" transform="translate(275.09 407.43)" stroke-miterlimit="10" stroke-width="8" fill="url(#Degradado_sin_nombre_2)" stroke="url(#linear-gradient-5)"/><path class="cls-11" d="M672.65 168.46v-.21c0-21.19 16.23-39.13 39.08-39.13 13.2 0 21.31 3.68 29.1 10.26l-8.44 10.06c-5.84-5-11.58-8.11-21.21-8.11-14 0-24.58 12.21-24.58 26.69v.23c0 15.55 10.29 27 25.77 27a30.93 30.93 0 0 0 18.28-5.73V172.4l12.88-8.59v31.78a48.32 48.32 0 0 1-31.59 11.77c-23.7 0-39.29-16.86-39.29-38.9" transform="translate(275.09 407.43)"/><g clip-path="url(#clip-path)"><path class="cls-2" d="M0 0h1528.91v1080.41H0z"/><g class="cls-13"><path class="cls-2" d="M938.67 527.47h89.04v96.4h-89.04z"/></g></g><path class="cls-11" d="M699.74 539.14l-33.34 76.2h13.64l7.79-18.27 4.88-11.79 12.98-30.25 13.09 30.25 4.88 11.79 7.68 18.27h14.07l-33.32-76.2h-12.35z"/><g clip-path="url(#clip-path-3)"><path class="cls-2" d="M0 0h1528.91v1080.41H0z"/><g class="cls-13"><path class="cls-2" d="M657.32 530.06h97.16v94.36h-97.16z"/></g></g><path class="cls-11" d="M886.3 537.57l-33.33 76.2h13.63l7.8-18.27 4.87-11.78 12.98-30.26 13.1 30.26 4.88 11.78 7.67 18.27h14.07l-33.32-76.2H886.3z"/><g clip-path="url(#clip-path-5)"><path class="cls-2" d="M0 0h1528.91v1080.41H0z"/><g class="cls-13"><path class="cls-2" d="M843.89 528.49h97.16v94.36h-97.16z"/></g></g><path class="cls-11" d="M808 129.39c-23.28 0-39.72 17.83-39.72 39.13v.21c0 21.29 16.23 38.9 39.49 38.9s39.72-17.83 39.72-39.11v-.23c.02-21.29-16.21-38.9-39.49-38.9zm25.54 39.34c0 14.69-10.5 26.69-25.54 26.69s-25.76-12.21-25.76-26.9v-.23c0-14.69 10.5-26.69 25.53-26.69s25.77 12.21 25.77 26.92z" transform="translate(275.09 407.43)"/><g clip-path="url(#clip-path-7)"><path class="cls-2" d="M0 0h1528.91v1080.41H0z"/><g class="cls-13"><path class="cls-2" d="M1034.31 527.74h97.38v96.4h-97.38z"/></g></g><path class="cls-11" d="M1202.44 538.11v52.31l-40.57-52.31h-12.35v75.66h13.1v-53.82l41.77 53.82h11.15v-75.66h-13.1z"/><g clip-path="url(#clip-path-9)"><path class="cls-2" d="M0 0h1528.91v1080.41H0z"/><g class="cls-13"><path class="cls-2" d="M1140.44 529.03h84.17v93.82h-84.17z"/></g></g><path class="cls-11" d="M539.16 177.69c10.6-3 18.06-10.48 18.06-22.91v-.21a22.81 22.81 0 0 0-6.28-16.32c-4.86-4.77-12.33-7.57-21.85-7.57h-33.77v75.66h13.32v-63.56H528a26.57 26.57 0 0 1 4.63.44c7 1.23 11.06 5.38 11.06 12.1v.22c0 7.67-6.06 12.65-15.58 12.65h-7.4L515.55 180h9.76l18.61 26.38h15.69z" transform="translate(275.09 407.43)"/><g clip-path="url(#clip-path-11)"><path class="cls-2" d="M0 0h1528.91v1080.41H0z"/><g class="cls-13"><path class="cls-2" d="M761.34 529.03h82.45v93.82h-82.45z"/></g></g></svg>