<svg width="512" height="512" viewBox="0 0 512 512" xmlns="http://www.w3.org/2000/svg"><path d="M145.348 324.663c0 .846-.968 1.53-2.16 1.53-1.195 0-2.162-.685-2.162-1.53 0-.85.967-1.534 2.161-1.534 1.193 0 2.161.685 2.161 1.534zm2.984 3.498c-1.395 0-2.528.804-2.528 1.792 0 .99 1.133 1.793 2.528 1.793 1.394 0 2.525-.803 2.525-1.793.002-.987-1.13-1.792-2.525-1.792zm12.228 11.807c-1.723 0-3.121.993-3.121 2.215s1.398 2.212 3.121 2.212 3.12-.99 3.12-2.212c0-1.222-1.397-2.215-3.12-2.215zm-27.886-24.313c-.916 0-1.66.527-1.66 1.177 0 .648.744 1.175 1.66 1.175.916 0 1.659-.527 1.659-1.175 0-.65-.743-1.177-1.66-1.177zm5.22 3.299c-1.019 0-1.845.586-1.845 1.308 0 .721.826 1.306 1.844 1.306 1.016 0 1.842-.585 1.842-1.306 0-.722-.826-1.308-1.842-1.308zm16.105 15.085c-1.551 0-2.809.894-2.809 1.993 0 1.103 1.258 1.994 2.809 1.994 1.55 0 2.81-.891 2.81-1.994 0-1.1-1.26-1.993-2.81-1.993zM512 256c0 141.385-114.615 256-256 256S0 397.385 0 256 114.615 0 256 0s256 114.615 256 256zm-131.85 13.488c.75-1.69 1.494-3.39 2.136-5.177 20.034-1.607 40.673-1.449 61.434.568l.33-3.417c-20.486-1.989-40.862-2.165-60.655-.654 3.181-10.153 4.858-21.62 4.737-34.663-.26-27.705-9.5-49.284-24.017-67.191 2.788-16.868.687-33.735-4.574-50.609-20.746 1.699-39.418 8.493-56.043 20.297-31.07-6.303-62.137-6.704-93.209 0-19.391-13.088-38.435-19.506-57.184-20.297-5.557 18.58-6.413 36.894-1.715 54.9-16.356 17.356-22.607 38.425-22.3 61.754.175 13.356 2.232 25.24 6.03 35.747a352.716 352.716 0 0 0-59.712.715l.33 3.417c20.532-1.993 40.945-2.157 60.772-.606.728 1.764 1.46 3.524 2.297 5.204-21.483-.567-40.817 1.3-58.924 5.753l.817 3.33c18.377-4.516 38.064-6.335 60.044-5.595 14.536 25.825 42.52 41 83.27 45.816-9.467 7.69-14.558 16.759-15.869 27.023h-21.582c-28.985 0-36.888-36.958-66.91-33.313 29.126 14.444 23.31 60.611 69.915 60.611h19.58v42.32c.208 6.839-2.77 11.412-7.578 14.58 16.691 1.685 29.234-6.648 29.234-16.868v-55.94c0-4.983 5.218-5.368 5.218-5.368v65.31c.221 6.5-2.938 10.195-6.29 13.725 14.705.587 28.536-2.35 29.162-14.865v-62.507c0-3.142 5.151-3.22 5.151 0v59.573c.152 10.558 9.271 19.118 28.59 17.798-5.168-4.16-6.755-8.365-6.755-14.45v-64.585s5.325-.273 5.325 5.368v54.473c0 12.124 14.553 17.126 31.164 16.655-5.442-4.076-9.126-8.937-9.148-15.44v-65.51c-.562-9.628-4.478-18.706-12.153-27.162 37.25-5.72 64.099-20.589 77.468-47.24 22.052-.757 41.799 1.058 60.223 5.587l.818-3.33c-18.248-4.483-37.742-6.347-59.427-5.737zm-176.68 79.889c-1.913 0-3.467 1.104-3.467 2.461 0 1.357 1.554 2.46 3.467 2.46 1.915 0 3.467-1.103 3.467-2.46s-1.552-2.461-3.467-2.461zm-11.444-.223c-1.915 0-3.466 1.104-3.466 2.462 0 1.357 1.551 2.46 3.466 2.46 1.914 0 3.467-1.103 3.467-2.46 0-1.358-1.553-2.462-3.467-2.462zm-11.596-.374c-1.913 0-3.467 1.104-3.467 2.462 0 1.357 1.554 2.46 3.467 2.46 1.917 0 3.467-1.103 3.467-2.46 0-1.358-1.55-2.462-3.467-2.462zm-10.995-3.243c-1.917 0-3.469 1.103-3.469 2.46 0 1.36 1.552 2.46 3.469 2.46 1.914 0 3.466-1.102 3.466-2.46 0-1.357-1.552-2.46-3.466-2.46z" fill-rule="evenodd"/></svg>